<?xml version="1.0" encoding="utf-8"?>
<!-- Generator: Adobe Illustrator 27.5.0, SVG Export Plug-In . SVG Version: 6.00 Build 0)  -->
<svg version="1.1" id="Ebene_1" xmlns="http://www.w3.org/2000/svg" xmlns:xlink="http://www.w3.org/1999/xlink" x="0px" y="0px"
	 viewBox="0 0 318.9 99.4" style="enable-background:new 0 0 318.9 99.4;" xml:space="preserve">
<style type="text/css">
	.st0{fill:#E30613;}
	.st1{fill:#4565AD;}
</style>
<path class="st0" d="M141.9,42.9h-13.4c-0.5,0-1,0.4-1,1v0.9c0,0.5,0.4,1,1,1h13.4c0.5,0,1-0.4,1-1v-0.9
	C142.9,43.4,142.4,42.9,141.9,42.9z"/>
<path class="st1" d="M56.2,27H34.1c-0.5,0-1,0.4-1,1v33.1c0,0.5,0.4,1,1,1h1c0.5,0,1-0.4,1-1V45.7h18.8c0.5,0,1-0.4,1-1v-0.9
	c0-0.5-0.4-1-1-1H36V29.8h20.2c0.5,0,1-0.4,1-1V28C57.2,27.5,56.7,27,56.2,27z"/>
<path class="st1" d="M87.6,27h-1c-0.5,0-1,0.4-1,1v14.9H62.9V28c0-0.5-0.4-1-1-1h-1c-0.5,0-1,0.4-1,1v33.1c0,0.5,0.4,1,1,1h1
	c0.5,0,1-0.4,1-1V45.7h22.8v15.4c0,0.5,0.4,1,1,1h1c0.5,0,1-0.4,1-1V28C88.6,27.5,88.2,27,87.6,27z"/>
<path class="st1" d="M121.9,27h-1c-0.5,0-1,0.4-1,1v14.9H97.2V28c0-0.5-0.4-1-1-1h-1c-0.5,0-1,0.4-1,1v33.1c0,0.5,0.4,1,1,1h1
	c0.5,0,1-0.4,1-1V45.7H120v15.4c0,0.5,0.4,1,1,1h1c0.5,0,1-0.4,1-1V28C122.9,27.5,122.5,27,121.9,27z"/>
<path class="st1" d="M198.4,27h-27.3c-0.5,0-1,0.4-1,1v0.9c0,0.5,0.4,1,1,1h12.2v31.3c0,0.5,0.4,1,1,1h1c0.5,0,1-0.4,1-1V29.8h12.2
	c0.5,0,1-0.4,1-1V28C199.4,27.5,198.9,27,198.4,27z"/>
<path class="st1" d="M273.9,42.2c-8.3-1.6-9.6-3.3-9.6-6.7c0-4.7,4.8-6.3,9-6.3c7.5,0,9.4,3.9,10.1,6.8c0.1,0.4,0.5,0.7,0.9,0.7h1
	c0.3,0,0.6-0.1,0.7-0.3c0.2-0.2,0.3-0.5,0.2-0.8c-0.6-3.4-3.1-9.2-12.9-9.2c-7.1,0-11.9,3.7-11.9,9.2c0,6,4,7.8,11.9,9.4
	c10,2,10.8,4.5,10.8,7.9c0,4.4-3.8,7.1-10.2,7.1c-6.3,0-10.3-2.8-11.2-8c-0.1-0.5-0.5-0.8-0.9-0.8h-1c-0.3,0-0.6,0.1-0.7,0.3
	c-0.2,0.2-0.3,0.5-0.2,0.8c1.2,6.8,6.1,10.4,14.1,10.4c8.1,0,13.1-3.8,13.1-10C286.9,46.9,283.4,44,273.9,42.2z"/>
<path class="st1" d="M244.4,27.6c-0.2-0.3-0.5-0.6-0.9-0.6h-0.9c-0.4,0-0.7,0.2-0.9,0.6l-14.4,33.1c-0.1,0.3-0.1,0.6,0.1,0.9
	c0.2,0.3,0.5,0.4,0.8,0.4h1c0.4,0,0.7-0.2,0.9-0.6l9.7-22.2c1.4-3.3,2.6-5.9,3.3-7.6c3,7.2,12.3,28.8,12.8,29.8
	c0.2,0.3,0.5,0.6,0.9,0.6h1.1c0.3,0,0.6-0.2,0.8-0.4c0.2-0.3,0.2-0.6,0.1-0.9L244.4,27.6z"/>
<path class="st1" d="M174.8,60.7l-14.3-33.1c-0.2-0.3-0.5-0.6-0.9-0.6h-0.9c-0.4,0-0.7,0.2-0.9,0.6l-14.4,33.1
	c-0.1,0.3-0.1,0.6,0.1,0.9c0.2,0.3,0.5,0.4,0.8,0.4h1c0.4,0,0.7-0.2,0.9-0.6l9.7-22.2c1.4-3.3,2.6-5.9,3.3-7.6c1.2,3,3.6,8.5,6,14
	h-7c-0.5,0-1,0.4-1,1v0.9c0,0.5,0.4,1,1,1h8c0.1,0,0.1,0,0.2,0c2.8,6.6,5.4,12.5,5.6,13c0.2,0.3,0.5,0.6,0.9,0.6h1.1
	c0.3,0,0.6-0.2,0.8-0.4C174.9,61.4,174.9,61,174.8,60.7z"/>
<path class="st1" d="M224.3,59.3L224.3,59.3h-19.5V45.2c0,0,0,0,0,0v-0.6v-0.9v-0.3c0,0,0,0,0,0V29.8V28c0-0.5-0.4-1-1-1h-1
	c-0.5,0-1,0.4-1,1v33.1c0,0.5,0.4,1,1,1h21.2h0.2c0.5,0,1-0.4,1-1v-0.9C225.2,59.7,224.8,59.3,224.3,59.3z"/>
</svg>
